<?xml version="1.0" encoding="UTF-8" standalone="no"?>
<!-- Created with Inkscape (http://www.inkscape.org/) -->

<svg
        version="1.1"
        id="svg2"
        width="566.92865"
        height="145.67934"
        viewBox="0 0 566.92864 145.67934"
        sodipodi:docname="cf-logo-bg_black.svg"
        xmlns:inkscape="http://www.inkscape.org/namespaces/inkscape"
        xmlns:sodipodi="http://sodipodi.sourceforge.net/DTD/sodipodi-0.dtd"
        xmlns="http://www.w3.org/2000/svg"
        xmlns:svg="http://www.w3.org/2000/svg">
    <defs
            id="defs6">
        <clipPath
                clipPathUnits="userSpaceOnUse"
                id="clipPath18">
            <path
                    d="M 0,595.28 H 841.89 V 0 H 0 Z"
                    id="path16"/>
        </clipPath>
    </defs>
    <sodipodi:namedview
            id="namedview4"
            pagecolor="#ffffff"
            bordercolor="#000000"
            borderopacity="0.25"
            inkscape:showpageshadow="2"
            inkscape:pageopacity="0.0"
            inkscape:pagecheckerboard="0"
            inkscape:deskcolor="#d1d1d1"
            showgrid="false"/>
    <g
            id="g10"
            inkscape:groupmode="layer"
            inkscape:label="Page 1"
            transform="matrix(1.3333333,0,0,-1.3333333,-444.82639,268.00066)">
        <g
                id="g12">
            <g
                    id="g14"
                    clip-path="url(#clipPath18)">
                <g
                        id="g118"
                        transform="translate(426.2578,181.292)">
                    <path
                            d="M 0,0 C 5.117,0 9.75,-2.074 13.102,-5.428 L 26.203,7.674 C 19.496,14.381 10.232,18.527 0,18.527 c -20.464,0 -37.055,-16.59 -37.055,-37.056 v -18.526 l -5.426,5.426 c -3.352,-3.353 -7.986,-5.426 -13.101,-5.426 -10.232,0 -18.528,8.295 -18.528,18.526 0,10.234 8.296,18.529 18.528,18.529 5.115,0 9.748,-2.074 13.101,-5.428 l 13.102,13.102 c -6.705,6.707 -15.971,10.853 -26.203,10.853 -20.465,0 -37.056,-16.59 -37.056,-37.056 0,-20.463 16.591,-37.055 37.056,-37.055 6.757,0 13.074,1.838 18.527,4.998 v -38.965 h 18.528 v 18.53 c 0,10.23 8.296,18.527 18.527,18.527 h 8.029 v 15.439 H 0 c -10.231,0 -18.527,8.295 -18.527,18.526 C -18.527,-8.295 -10.231,0 0,0"
                            style="fill:#ffffff;fill-opacity:1;fill-rule:nonzero;stroke:none"
                            id="path120"/>
                </g>
                <g
                        id="g122"
                        transform="translate(519.0605,130.9229)">
                    <path
                            d="M 0,0 C 3.715,0 4.822,3.176 4.822,6.316 4.822,9.492 3.715,12.67 0,12.67 -3.676,12.67 -4.785,9.492 -4.785,6.316 -4.785,3.176 -3.676,0 0,0 m 0,16.766 c 6.24,0 10.258,-4.135 10.258,-10.45 C 10.258,0.039 6.24,-4.096 0,-4.096 c -6.201,0 -10.221,4.135 -10.221,10.412 0,6.315 4.02,10.45 10.221,10.45"
                            style="fill:#ffffff;fill-opacity:1;fill-rule:nonzero;stroke:none"
                            id="path124"/>
                </g>
                <g
                        id="g126"
                        transform="translate(551.2109,127.3643)">
                    <path
                            d="m 0,0 h -5.168 v 2.754 h -0.113 c -1.377,-2.219 -3.752,-3.291 -6.049,-3.291 -5.779,0 -7.232,3.254 -7.232,8.154 v 12.172 h 5.433 V 8.613 c 0,-3.256 0.959,-4.863 3.484,-4.863 2.948,0 4.211,1.646 4.211,5.666 V 19.789 H 0 Z"
                            style="fill:#ffffff;fill-opacity:1;fill-rule:nonzero;stroke:none"
                            id="path128"/>
                </g>
                <g
                        id="g130"
                        transform="translate(555.1523,147.1533)">
                    <path
                            d="m 0,0 h 5.168 v -2.758 h 0.115 c 1.377,2.221 3.75,3.293 6.047,3.293 5.781,0 7.236,-3.256 7.236,-8.154 v -12.17 h -5.435 v 11.176 c 0,3.256 -0.957,4.861 -3.486,4.861 -2.944,0 -4.209,-1.644 -4.209,-5.664 V -19.789 H 0 Z"
                            style="fill:#ffffff;fill-opacity:1;fill-rule:nonzero;stroke:none"
                            id="path132"/>
                </g>
                <g
                        id="g134"
                        transform="translate(587.0371,143.5928)">
                    <path
                            d="m 0,0 c -3.561,0 -4.787,-3.063 -4.787,-6.314 0,-3.102 1.42,-6.356 4.787,-6.356 3.598,0 4.668,3.139 4.668,6.393 C 4.668,-3.063 3.52,0 0,0 M 4.744,-13.705 H 4.668 c -1.264,-2.143 -3.482,-3.061 -6.008,-3.061 -5.972,0 -8.883,5.129 -8.883,10.604 0,5.32 2.95,10.258 8.766,10.258 C 0.881,4.096 3.176,3.1 4.4,1.148 H 4.477 V 11.1 H 9.912 V -16.229 H 4.744 Z"
                            style="fill:#ffffff;fill-opacity:1;fill-rule:nonzero;stroke:none"
                            id="path136"/>
                </g>
                <g
                        id="g138"
                        transform="translate(613.1797,137.0479)">
                    <path
                            d="m 0,0 c -0.92,-0.805 -2.834,-0.842 -4.516,-1.148 -1.687,-0.346 -3.218,-0.918 -3.218,-2.911 0,-2.027 1.57,-2.523 3.33,-2.523 4.25,0 4.404,3.367 4.404,4.555 z m -12.557,4.018 c 0.309,5.093 4.862,6.623 9.301,6.623 3.942,0 8.692,-0.881 8.692,-5.627 V -5.283 c 0,-1.797 0.189,-3.6 0.687,-4.401 H 0.611 c -0.189,0.614 -0.343,1.26 -0.382,1.913 -1.721,-1.797 -4.249,-2.45 -6.661,-2.45 -3.752,0 -6.738,1.875 -6.738,5.934 0,4.478 3.369,5.551 6.738,6.01 C -3.104,2.221 0,2.105 0,4.326 0,6.66 -1.609,7.002 -3.521,7.002 c -2.067,0 -3.407,-0.84 -3.6,-2.984 z"
                            style="fill:#ffffff;fill-opacity:1;fill-rule:nonzero;stroke:none"
                            id="path140"/>
                </g>
                <g
                        id="g142"
                        transform="translate(629.5234,147.1533)">
                    <path
                            d="M 0,0 H 3.979 V -3.637 H 0 v -9.799 c 0,-1.837 0.457,-2.296 2.295,-2.296 0.576,0 1.111,0.039 1.684,0.152 v -4.246 c -0.92,-0.156 -2.104,-0.194 -3.178,-0.194 -3.328,0 -6.238,0.766 -6.238,4.709 V -3.637 H -8.729 V 0 h 3.292 V 5.932 H 0 Z"
                            style="fill:#ffffff;fill-opacity:1;fill-rule:nonzero;stroke:none"
                            id="path144"/>
                </g>
                <path
                        d="m 636.268,150.216 h 5.436 v 4.477 h -5.436 z"
                        style="fill:#ffffff;fill-opacity:1;fill-rule:nonzero;stroke:none"
                        id="path146"/>
                <g
                        id="g148"
                        transform="translate(489.2637,154.6924)">
                    <path
                            d="m 0,0 v -27.328 h 5.436 v 11.291 h 10.937 v 4.67 H 5.436 v 6.699 H 18.131 V 0 Z"
                            style="fill:#ffffff;fill-opacity:1;fill-rule:nonzero;stroke:none"
                            id="path150"/>
                </g>
                <path
                        d="m 636.268,127.364 h 5.436 v 19.789 h -5.436 z"
                        style="fill:#ffffff;fill-opacity:1;fill-rule:nonzero;stroke:none"
                        id="path152"/>
                <g
                        id="g154"
                        transform="translate(655.4082,130.9229)">
                    <path
                            d="M 0,0 C 3.711,0 4.822,3.176 4.822,6.316 4.822,9.492 3.711,12.67 0,12.67 -3.676,12.67 -4.785,9.492 -4.785,6.316 -4.785,3.176 -3.676,0 0,0 m 0,16.766 c 6.238,0 10.258,-4.135 10.258,-10.45 0,-6.277 -4.02,-10.412 -10.258,-10.412 -6.201,0 -10.221,4.135 -10.221,10.412 0,6.315 4.02,10.45 10.221,10.45"
                            style="fill:#ffffff;fill-opacity:1;fill-rule:nonzero;stroke:none"
                            id="path156"/>
                </g>
                <g
                        id="g158"
                        transform="translate(668.9941,147.1533)">
                    <path
                            d="m 0,0 h 5.17 v -2.758 h 0.109 c 1.385,2.221 3.756,3.293 6.051,3.293 5.777,0 7.232,-3.256 7.232,-8.154 v -12.17 h -5.435 v 11.176 c 0,3.256 -0.955,4.861 -3.482,4.861 -2.948,0 -4.209,-1.644 -4.209,-5.664 V -19.789 H 0 Z"
                            style="fill:#ffffff;fill-opacity:1;fill-rule:nonzero;stroke:none"
                            id="path160"/>
                </g>
                <g
                        id="g162"
                        transform="translate(517.4414,200.4658)">
                    <path
                            d="m 0,0 h 5.436 v -10.297 h 0.113 c 1.379,2.221 3.752,3.293 5.779,3.293 5.781,0 7.236,-3.254 7.236,-8.154 v -12.17 h -5.435 v 11.176 c 0,3.254 -0.957,4.861 -3.483,4.861 -2.947,0 -4.21,-1.647 -4.21,-5.664 V -27.328 H 0 Z"
                            style="fill:#ffffff;fill-opacity:1;fill-rule:nonzero;stroke:none"
                            id="path164"/>
                </g>
                <g
                        id="g166"
                        transform="translate(552.2715,182.8213)">
                    <path
                            d="m 0,0 c -0.918,-0.805 -2.832,-0.844 -4.518,-1.148 -1.683,-0.346 -3.214,-0.918 -3.214,-2.911 0,-2.027 1.57,-2.523 3.332,-2.523 4.246,0 4.4,3.367 4.4,4.553 z m -12.553,4.021 c 0.305,5.09 4.86,6.62 9.301,6.62 3.941,0 8.688,-0.881 8.688,-5.627 V -5.283 c 0,-1.797 0.191,-3.596 0.689,-4.401 H 0.613 C 0.422,-9.07 0.27,-8.42 0.23,-7.771 c -1.72,-1.797 -4.25,-2.45 -6.658,-2.45 -3.754,0 -6.74,1.875 -6.74,5.934 0,4.476 3.371,5.549 6.74,6.008 C -3.1,2.219 0,2.105 0,4.326 0,6.66 -1.605,7.004 -3.52,7.004 c -2.066,0 -3.408,-0.842 -3.599,-2.983 z"
                            style="fill:#ffffff;fill-opacity:1;fill-rule:nonzero;stroke:none"
                            id="path168"/>
                </g>
                <g
                        id="g170"
                        transform="translate(561.8789,192.9248)">
                    <path
                            d="m 0,0 h 5.129 v -2.678 h 0.078 c 1.416,2.028 3.482,3.215 6.045,3.215 2.49,0 4.709,-0.918 5.781,-3.293 1.149,1.725 3.215,3.293 5.971,3.293 4.211,0 7.234,-1.953 7.234,-7.08 v -13.244 h -5.435 v 11.215 c 0,2.64 -0.231,4.822 -3.33,4.822 -3.063,0 -3.637,-2.525 -3.637,-5.014 v -11.023 h -5.434 v 11.099 c 0,2.297 0.151,4.938 -3.293,4.938 -1.074,0 -3.673,-0.687 -3.673,-4.555 V -19.787 H 0 Z"
                            style="fill:#ffffff;fill-opacity:1;fill-rule:nonzero;stroke:none"
                            id="path172"/>
                </g>
                <g
                        id="g174"
                        transform="translate(610.9102,182.9736)">
                    <path
                            d="m 0,0 c 0,3.141 -1.264,6.393 -4.746,6.393 -3.559,0 -4.709,-3.176 -4.709,-6.393 0,-3.215 1.226,-6.277 4.746,-6.277 C -1.148,-6.277 0,-3.215 0,0 m -14.699,9.951 h 5.168 V 7.426 h 0.076 c 1.301,2.105 3.447,3.062 5.896,3.062 6.202,0 8.995,-5.013 8.995,-10.64 0,-5.284 -2.911,-10.221 -8.69,-10.221 -2.373,0 -4.631,1.035 -5.932,2.988 h -0.078 v -9.418 h -5.435 z"
                            style="fill:#ffffff;fill-opacity:1;fill-rule:nonzero;stroke:none"
                            id="path176"/>
                </g>
                <g
                        id="g178"
                        transform="translate(631.8848,182.8213)">
                    <path
                            d="m 0,0 c -0.92,-0.805 -2.834,-0.844 -4.516,-1.148 -1.685,-0.346 -3.216,-0.918 -3.216,-2.911 0,-2.027 1.57,-2.523 3.33,-2.523 4.25,0 4.402,3.367 4.402,4.553 z m -12.555,4.021 c 0.307,5.09 4.862,6.62 9.301,6.62 3.941,0 8.688,-0.881 8.688,-5.627 V -5.283 c 0,-1.797 0.191,-3.596 0.689,-4.401 H 0.611 c -0.189,0.614 -0.343,1.264 -0.382,1.913 -1.721,-1.797 -4.247,-2.45 -6.659,-2.45 -3.752,0 -6.738,1.875 -6.738,5.934 0,4.476 3.369,5.549 6.738,6.008 C -3.1,2.219 0,2.105 0,4.326 0,6.66 -1.609,7.004 -3.521,7.004 c -2.067,0 -3.407,-0.842 -3.6,-2.983 z"
                            style="fill:#ffffff;fill-opacity:1;fill-rule:nonzero;stroke:none"
                            id="path180"/>
                </g>
                <path
                        d="m 641.49,200.466 h 5.436 v -27.328 h -5.436 z"
                        style="fill:#ffffff;fill-opacity:1;fill-rule:nonzero;stroke:none"
                        id="path182"/>
                <path
                        d="m 651.176,192.925 h 5.434 v -19.787 h -5.434 z m 5.433,3.062 h -5.434 v 4.479 h 5.434 z"
                        style="fill:#ffffff;fill-opacity:1;fill-rule:nonzero;stroke:none"
                        id="path184"/>
                <g
                        id="g186"
                        transform="translate(660.8574,192.9248)">
                    <path
                            d="m 0,0 h 5.129 v -2.678 h 0.078 c 1.416,2.028 3.481,3.215 6.045,3.215 2.488,0 4.709,-0.918 5.781,-3.293 1.149,1.725 3.215,3.293 5.971,3.293 4.211,0 7.234,-1.953 7.234,-7.08 v -13.244 h -5.435 v 11.215 c 0,2.64 -0.229,4.822 -3.328,4.822 -3.063,0 -3.637,-2.525 -3.637,-5.014 V -19.787 H 12.4 v 11.099 c 0,2.297 0.157,4.938 -3.289,4.938 -1.07,0 -3.675,-0.687 -3.675,-4.555 V -19.787 H 0 Z"
                            style="fill:#ffffff;fill-opacity:1;fill-rule:nonzero;stroke:none"
                            id="path188"/>
                </g>
                <g
                        id="g190"
                        transform="translate(707.5156,182.8213)">
                    <path
                            d="m 0,0 c -0.918,-0.805 -2.832,-0.844 -4.514,-1.148 -1.687,-0.346 -3.216,-0.918 -3.216,-2.911 0,-2.027 1.566,-2.523 3.328,-2.523 4.25,0 4.402,3.367 4.402,4.553 z m -12.555,4.021 c 0.307,5.09 4.862,6.62 9.303,6.62 3.939,0 8.686,-0.881 8.686,-5.627 V -5.283 c 0,-1.797 0.191,-3.596 0.689,-4.401 H 0.611 C 0.422,-9.07 0.268,-8.42 0.23,-7.771 c -1.722,-1.797 -4.248,-2.45 -6.66,-2.45 -3.752,0 -6.738,1.875 -6.738,5.934 0,4.476 3.367,5.549 6.738,6.008 C -3.1,2.219 0,2.105 0,4.326 0,6.66 -1.607,7.004 -3.52,7.004 c -2.068,0 -3.41,-0.842 -3.599,-2.983 z"
                            style="fill:#ffffff;fill-opacity:1;fill-rule:nonzero;stroke:none"
                            id="path192"/>
                </g>
                <g
                        id="g194"
                        transform="translate(735.5352,173.1377)">
                    <path
                            d="m 0,0 h -5.17 v 2.756 h -0.113 c -1.379,-2.219 -3.752,-3.293 -6.047,-3.293 -5.781,0 -7.238,3.254 -7.238,8.154 v 12.17 h 5.439 V 8.611 c 0,-3.254 0.955,-4.859 3.481,-4.859 2.949,0 4.211,1.644 4.211,5.662 V 19.787 H 0 Z"
                            style="fill:#ffffff;fill-opacity:1;fill-rule:nonzero;stroke:none"
                            id="path196"/>
                </g>
                <g
                        id="g198"
                        transform="translate(748.9023,189.3662)">
                    <path
                            d="m 0,0 c -3.561,0 -4.783,-3.061 -4.783,-6.316 0,-3.1 1.416,-6.354 4.783,-6.354 3.602,0 4.672,3.139 4.672,6.395 C 4.672,-3.061 3.523,0 0,0 M 4.75,-13.703 H 4.672 c -1.264,-2.145 -3.485,-3.063 -6.01,-3.063 -5.973,0 -8.879,5.129 -8.879,10.604 0,5.32 2.946,10.258 8.764,10.258 2.336,0 4.631,-0.994 5.855,-2.948 H 4.479 V 11.1 H 9.914 V -16.229 H 4.75 Z"
                            style="fill:#ffffff;fill-opacity:1;fill-rule:nonzero;stroke:none"
                            id="path200"/>
                </g>
                <g
                        id="g202"
                        transform="translate(508.625,183.6885)">
                    <path
                            d="m 0,0 c -0.676,-3.553 -2.494,-6.395 -6.785,-6.395 -5.459,0 -7.01,4.665 -7.01,9.389 0,4.963 1.551,9.625 7.01,9.625 3.711,0 5.523,-2.099 6.435,-5.064 h 5.504 c -0.722,6.265 -5.478,9.757 -11.443,9.757 -8.391,0 -13.072,-6.265 -13.072,-14.312 0,-7.822 4.681,-14.088 13.072,-14.088 6.646,0 11.06,4.328 11.672,11.088 z"
                            style="fill:#ffffff;fill-opacity:1;fill-rule:nonzero;stroke:none"
                            id="path204"/>
                </g>
            </g>
        </g>
    </g>
</svg>
