<?xml version="1.0" encoding="UTF-8" standalone="no"?>
<!-- Created with Inkscape (http://www.inkscape.org/) -->

<svg
        version="1.1"
        id="svg2"
        width="566.9339"
        height="145.67934"
        viewBox="0 0 566.93389 145.67934"
        sodipodi:docname="cf-logo-bg_black.svg"
        xmlns:inkscape="http://www.inkscape.org/namespaces/inkscape"
        xmlns:sodipodi="http://sodipodi.sourceforge.net/DTD/sodipodi-0.dtd"
        xmlns="http://www.w3.org/2000/svg"
        xmlns:svg="http://www.w3.org/2000/svg">
    <defs
            id="defs6"/>
    <sodipodi:namedview
            id="namedview4"
            pagecolor="#ffffff"
            bordercolor="#000000"
            borderopacity="0.25"
            inkscape:showpageshadow="2"
            inkscape:pageopacity="0.0"
            inkscape:pagecheckerboard="0"
            inkscape:deskcolor="#d1d1d1"
            showgrid="false"/>
    <g
            id="g10"
            inkscape:groupmode="layer"
            inkscape:label="Page 1"
            transform="matrix(1.3333333,0,0,-1.3333333,-444.82639,268.00066)">
        <g
                inkscape:groupmode="layer"
                id="layer1"
                inkscape:label="Page 2">
            <g
                    id="g6227"
                    transform="translate(-53.68671,115.42407)"
                    style="display:inline">
                <g
                        id="g20"
                        transform="translate(424.36141,28.81323)">
                    <path
                            d="M 0,0 C 10.233,0 18.528,8.295 18.528,18.527 18.528,28.76 10.233,37.055 0,37.055 -10.231,37.055 -18.527,28.76 -18.527,18.527 -18.527,8.295 -10.231,0 0,0"
                            style="fill:#ec153e;fill-opacity:1;fill-rule:nonzero;stroke:none"
                            id="path22"/>
                </g>
                <g
                        id="g24"
                        transform="translate(479.94641,65.86793)">
                    <path
                            d="m 0,0 c 5.117,0 9.75,-2.074 13.104,-5.426 l 13.101,13.1 C 19.498,14.381 10.234,18.527 0,18.527 c -20.466,0 -37.057,-16.59 -37.057,-37.054 v -18.528 l 7.674,-7.675 c -2.278,-2.276 -4.869,-4.229 -7.674,-5.856 v -38.965 h 18.528 v 18.528 c 0,10.232 8.296,18.529 18.529,18.529 h 8.031 v 15.439 H 0 c -10.233,0 -18.529,8.295 -18.529,18.528 C -18.529,-8.295 -10.233,0 0,0"
                            style="fill:#040606;fill-opacity:1;fill-rule:nonzero;stroke:none"
                            id="path26"/>
                </g>
                <g
                        id="g28"
                        transform="translate(437.46351,34.23903)">
                    <path
                            d="m 0,0 c -3.354,-3.352 -7.986,-5.426 -13.102,-5.426 -10.231,0 -18.527,8.295 -18.527,18.528 0,10.232 8.296,18.527 18.527,18.527 5.116,0 9.748,-2.074 13.102,-5.426 l 13.1,13.1 c -6.705,6.707 -15.967,10.853 -26.202,10.853 -20.465,0 -37.055,-16.59 -37.055,-37.054 0,-20.465 16.59,-37.057 37.055,-37.057 6.758,0 13.073,1.84 18.528,4.998 2.804,1.627 5.396,3.58 7.674,5.855 l -7.674,7.676 z"
                            style="fill:#17a6e7;fill-opacity:1;fill-rule:nonzero;stroke:none"
                            id="path30"/>
                </g>
                <g
                        id="g32"
                        transform="translate(572.75111,15.50073)">
                    <path
                            d="M 0,0 C 3.713,0 4.822,3.174 4.822,6.314 4.822,9.49 3.713,12.668 0,12.668 -3.676,12.668 -4.785,9.49 -4.785,6.314 -4.785,3.174 -3.676,0 0,0 m 0,16.764 c 6.24,0 10.258,-4.133 10.258,-10.45 C 10.258,0.039 6.24,-4.098 0,-4.098 c -6.201,0 -10.221,4.137 -10.221,10.412 0,6.317 4.02,10.45 10.221,10.45"
                            style="fill:#040606;fill-opacity:1;fill-rule:nonzero;stroke:none"
                            id="path34"/>
                </g>
                <g
                        id="g36"
                        transform="translate(604.90341,11.94023)">
                    <path
                            d="m 0,0 h -5.168 v 2.754 h -0.117 c -1.375,-2.219 -3.748,-3.291 -6.045,-3.291 -5.781,0 -7.236,3.252 -7.236,8.154 v 12.172 h 5.435 V 8.613 c 0,-3.256 0.959,-4.863 3.485,-4.863 2.947,0 4.21,1.646 4.21,5.666 V 19.789 H 0 Z"
                            style="fill:#040606;fill-opacity:1;fill-rule:nonzero;stroke:none"
                            id="path38"/>
                </g>
                <g
                        id="g40"
                        transform="translate(608.84291,31.72923)">
                    <path
                            d="m 0,0 h 5.166 v -2.758 h 0.117 c 1.377,2.221 3.75,3.293 6.047,3.293 5.781,0 7.234,-3.254 7.234,-8.154 v -12.17 h -5.435 v 11.176 c 0,3.254 -0.955,4.861 -3.484,4.861 -2.946,0 -4.209,-1.644 -4.209,-5.664 V -19.789 H 0 Z"
                            style="fill:#040606;fill-opacity:1;fill-rule:nonzero;stroke:none"
                            id="path42"/>
                </g>
                <g
                        id="g44"
                        transform="translate(640.72761,28.16873)">
                    <path
                            d="m 0,0 c -3.559,0 -4.785,-3.063 -4.785,-6.314 0,-3.104 1.418,-6.354 4.785,-6.354 3.598,0 4.668,3.137 4.668,6.391 C 4.668,-3.063 3.52,0 0,0 M 4.744,-13.703 H 4.668 c -1.262,-2.145 -3.482,-3.063 -6.008,-3.063 -5.972,0 -8.883,5.131 -8.883,10.604 0,5.32 2.952,10.258 8.766,10.258 2.338,0 4.633,-0.996 5.859,-2.946 H 4.479 V 11.1 H 9.912 V -16.229 H 4.744 Z"
                            style="fill:#040606;fill-opacity:1;fill-rule:nonzero;stroke:none"
                            id="path46"/>
                </g>
                <g
                        id="g48"
                        transform="translate(666.87021,21.62373)">
                    <path
                            d="m 0,0 c -0.92,-0.805 -2.834,-0.842 -4.518,-1.148 -1.685,-0.346 -3.216,-0.918 -3.216,-2.909 0,-2.027 1.57,-2.525 3.332,-2.525 4.248,0 4.402,3.367 4.402,4.555 z m -12.555,4.018 c 0.307,5.091 4.86,6.623 9.299,6.623 3.942,0 8.692,-0.881 8.692,-5.627 V -5.281 c 0,-1.799 0.189,-3.6 0.687,-4.403 H 0.611 C 0.42,-9.07 0.268,-8.422 0.229,-7.77 c -1.721,-1.798 -4.249,-2.451 -6.661,-2.451 -3.752,0 -6.736,1.877 -6.736,5.934 0,4.478 3.369,5.551 6.736,6.01 C -3.102,2.221 0,2.105 0,4.324 c 0,2.338 -1.609,2.68 -3.521,2.68 -2.067,0 -3.407,-0.842 -3.6,-2.986 z"
                            style="fill:#040606;fill-opacity:1;fill-rule:nonzero;stroke:none"
                            id="path50"/>
                </g>
                <g
                        id="g52"
                        transform="translate(683.21201,31.72923)">
                    <path
                            d="M 0,0 H 3.982 V -3.637 H 0 v -9.799 c 0,-1.835 0.459,-2.296 2.299,-2.296 0.574,0 1.109,0.039 1.683,0.154 v -4.25 c -0.919,-0.154 -2.105,-0.192 -3.179,-0.192 -3.328,0 -6.237,0.766 -6.237,4.709 V -3.637 H -8.727 V 0 h 3.293 V 5.932 H 0 Z"
                            style="fill:#040606;fill-opacity:1;fill-rule:nonzero;stroke:none"
                            id="path54"/>
                </g>
                <path
                        d="m 689.96021,34.79133 h 5.434 v 4.477 h -5.434 z"
                        style="fill:#040606;fill-opacity:1;fill-rule:nonzero;stroke:none"
                        id="path56"/>
                <g
                        id="g58"
                        transform="translate(542.95621,39.26833)">
                    <path
                            d="m 0,0 v -27.328 h 5.434 v 11.291 h 10.937 v 4.67 H 5.434 v 6.699 H 18.131 V 0 Z"
                            style="fill:#040606;fill-opacity:1;fill-rule:nonzero;stroke:none"
                            id="path60"/>
                </g>
                <path
                        d="m 689.96021,11.94033 h 5.434 v 19.789 h -5.434 z"
                        style="fill:#040606;fill-opacity:1;fill-rule:nonzero;stroke:none"
                        id="path62"/>
                <g
                        id="g64"
                        transform="translate(709.10071,15.50073)">
                    <path
                            d="M 0,0 C 3.711,0 4.82,3.174 4.82,6.314 4.82,9.49 3.711,12.668 0,12.668 -3.678,12.668 -4.787,9.49 -4.787,6.314 -4.787,3.174 -3.678,0 0,0 m 0,16.764 c 6.238,0 10.256,-4.133 10.256,-10.45 C 10.256,0.039 6.238,-4.098 0,-4.098 c -6.203,0 -10.225,4.137 -10.225,10.412 0,6.317 4.022,10.45 10.225,10.45"
                            style="fill:#040606;fill-opacity:1;fill-rule:nonzero;stroke:none"
                            id="path66"/>
                </g>
                <g
                        id="g68"
                        transform="translate(722.68661,31.72923)">
                    <path
                            d="m 0,0 h 5.168 v -2.758 h 0.111 c 1.383,2.221 3.754,3.293 6.049,3.293 5.779,0 7.234,-3.254 7.234,-8.154 v -12.17 h -5.437 v 11.176 c 0,3.254 -0.955,4.861 -3.482,4.861 -2.948,0 -4.207,-1.644 -4.207,-5.664 V -19.789 H 0 Z"
                            style="fill:#040606;fill-opacity:1;fill-rule:nonzero;stroke:none"
                            id="path70"/>
                </g>
                <g
                        id="g72"
                        transform="translate(571.13391,85.04173)">
                    <path
                            d="m 0,0 h 5.434 v -10.295 h 0.115 c 1.377,2.219 3.752,3.291 5.779,3.291 5.779,0 7.234,-3.254 7.234,-8.152 v -12.172 h -5.435 v 11.176 c 0,3.254 -0.957,4.861 -3.482,4.861 -2.948,0 -4.211,-1.645 -4.211,-5.664 V -27.328 H 0 Z"
                            style="fill:#040606;fill-opacity:1;fill-rule:nonzero;stroke:none"
                            id="path74"/>
                </g>
                <g
                        id="g76"
                        transform="translate(605.96201,67.39723)">
                    <path
                            d="m 0,0 c -0.918,-0.805 -2.832,-0.844 -4.516,-1.148 -1.685,-0.344 -3.214,-0.918 -3.214,-2.911 0,-2.027 1.568,-2.523 3.328,-2.523 4.25,0 4.402,3.367 4.402,4.553 z m -12.553,4.02 c 0.307,5.089 4.86,6.621 9.301,6.621 3.941,0 8.689,-0.881 8.689,-5.627 V -5.283 c 0,-1.797 0.19,-3.596 0.688,-4.401 H 0.613 C 0.422,-9.07 0.27,-8.42 0.23,-7.77 c -1.722,-1.798 -4.25,-2.449 -6.658,-2.449 -3.754,0 -6.738,1.873 -6.738,5.932 0,4.478 3.369,5.549 6.738,6.01 C -3.1,2.221 0,2.105 0,4.326 0,6.66 -1.605,7.004 -3.521,7.004 -5.586,7.004 -6.928,6.162 -7.119,4.02 Z"
                            style="fill:#040606;fill-opacity:1;fill-rule:nonzero;stroke:none"
                            id="path78"/>
                </g>
                <g
                        id="g80"
                        transform="translate(615.56941,77.50273)">
                    <path
                            d="m 0,0 h 5.129 v -2.68 h 0.076 c 1.416,2.028 3.484,3.215 6.047,3.215 2.488,0 4.709,-0.918 5.781,-3.291 1.147,1.723 3.217,3.291 5.971,3.291 4.211,0 7.234,-1.953 7.234,-7.08 v -13.244 h -5.435 v 11.215 c 0,2.64 -0.229,4.822 -3.33,4.822 -3.063,0 -3.637,-2.525 -3.637,-5.014 v -11.023 h -5.434 v 11.1 c 0,2.296 0.151,4.937 -3.293,4.937 -1.072,0 -3.675,-0.689 -3.675,-4.555 V -19.789 H 0 Z"
                            style="fill:#040606;fill-opacity:1;fill-rule:nonzero;stroke:none"
                            id="path82"/>
                </g>
                <g
                        id="g84"
                        transform="translate(664.60071,67.54953)">
                    <path
                            d="m 0,0 c 0,3.139 -1.264,6.393 -4.746,6.393 -3.561,0 -4.709,-3.178 -4.709,-6.393 0,-3.215 1.226,-6.275 4.746,-6.275 C -1.148,-6.275 0,-3.215 0,0 m -14.697,9.953 h 5.166 V 7.426 h 0.076 c 1.301,2.105 3.445,3.062 5.896,3.062 6.202,0 8.995,-5.013 8.995,-10.64 0,-5.284 -2.909,-10.219 -8.69,-10.219 -2.373,0 -4.631,1.033 -5.932,2.986 h -0.078 v -9.418 h -5.433 z"
                            style="fill:#040606;fill-opacity:1;fill-rule:nonzero;stroke:none"
                            id="path86"/>
                </g>
                <g
                        id="g88"
                        transform="translate(685.57531,67.39723)">
                    <path
                            d="m 0,0 c -0.92,-0.805 -2.834,-0.844 -4.518,-1.148 -1.683,-0.344 -3.214,-0.918 -3.214,-2.911 0,-2.027 1.568,-2.523 3.33,-2.523 4.25,0 4.402,3.367 4.402,4.553 z m -12.555,4.02 c 0.307,5.089 4.862,6.621 9.301,6.621 3.941,0 8.688,-0.881 8.688,-5.627 V -5.283 c 0,-1.797 0.191,-3.596 0.689,-4.401 H 0.611 C 0.42,-9.07 0.268,-8.42 0.23,-7.77 c -1.722,-1.798 -4.25,-2.449 -6.66,-2.449 -3.752,0 -6.738,1.873 -6.738,5.932 0,4.478 3.371,5.549 6.738,6.01 C -3.102,2.221 0,2.105 0,4.326 0,6.66 -1.609,7.004 -3.521,7.004 -5.59,7.004 -6.928,6.162 -7.119,4.02 Z"
                            style="fill:#040606;fill-opacity:1;fill-rule:nonzero;stroke:none"
                            id="path90"/>
                </g>
                <path
                        d="m 695.18121,85.04133 h 5.436 v -27.328 h -5.436 z"
                        style="fill:#040606;fill-opacity:1;fill-rule:nonzero;stroke:none"
                        id="path92"/>
                <path
                        d="m 704.86621,77.50233 h 5.436 v -19.789 h -5.436 z m 5.436,3.061 h -5.436 v 4.479 h 5.436 z"
                        style="fill:#040606;fill-opacity:1;fill-rule:nonzero;stroke:none"
                        id="path94"/>
                <g
                        id="g96"
                        transform="translate(714.54791,77.50273)">
                    <path
                            d="m 0,0 h 5.131 v -2.68 h 0.076 c 1.416,2.028 3.482,3.215 6.047,3.215 2.488,0 4.709,-0.918 5.779,-3.291 1.149,1.723 3.215,3.291 5.973,3.291 4.209,0 7.234,-1.953 7.234,-7.08 v -13.244 h -5.437 v 11.215 c 0,2.64 -0.229,4.822 -3.328,4.822 -3.063,0 -3.637,-2.525 -3.637,-5.014 v -11.023 h -5.436 v 11.1 c 0,2.296 0.155,4.937 -3.289,4.937 -1.072,0 -3.677,-0.689 -3.677,-4.555 V -19.789 H 0 Z"
                            style="fill:#040606;fill-opacity:1;fill-rule:nonzero;stroke:none"
                            id="path98"/>
                </g>
                <g
                        id="g100"
                        transform="translate(761.20811,67.39723)">
                    <path
                            d="m 0,0 c -0.92,-0.805 -2.836,-0.844 -4.516,-1.148 -1.687,-0.344 -3.218,-0.918 -3.218,-2.911 0,-2.027 1.57,-2.523 3.332,-2.523 4.246,0 4.402,3.367 4.402,4.553 z m -12.555,4.02 c 0.305,5.089 4.86,6.621 9.301,6.621 3.941,0 8.686,-0.881 8.686,-5.627 V -5.283 c 0,-1.797 0.193,-3.596 0.691,-4.401 H 0.611 C 0.42,-9.07 0.268,-8.42 0.229,-7.77 c -1.723,-1.798 -4.249,-2.449 -6.661,-2.449 -3.752,0 -6.736,1.873 -6.736,5.932 0,4.478 3.369,5.549 6.736,6.01 C -3.102,2.221 0,2.105 0,4.326 0,6.66 -1.609,7.004 -3.521,7.004 -5.59,7.004 -6.93,6.162 -7.119,4.02 Z"
                            style="fill:#040606;fill-opacity:1;fill-rule:nonzero;stroke:none"
                            id="path102"/>
                </g>
                <g
                        id="g104"
                        transform="translate(789.22571,57.71363)">
                    <path
                            d="m 0,0 h -5.17 v 2.756 h -0.113 c -1.379,-2.221 -3.75,-3.291 -6.047,-3.291 -5.779,0 -7.236,3.252 -7.236,8.152 v 12.172 h 5.437 V 8.611 c 0,-3.254 0.957,-4.859 3.483,-4.859 2.949,0 4.21,1.644 4.21,5.664 V 19.789 H 0 Z"
                            style="fill:#040606;fill-opacity:1;fill-rule:nonzero;stroke:none"
                            id="path106"/>
                </g>
                <g
                        id="g108"
                        transform="translate(802.59291,73.94213)">
                    <path
                            d="m 0,0 c -3.559,0 -4.783,-3.061 -4.783,-6.314 0,-3.102 1.416,-6.354 4.783,-6.354 3.602,0 4.672,3.139 4.672,6.391 C 4.672,-3.061 3.523,0 0,0 M 4.75,-13.701 H 4.672 c -1.264,-2.147 -3.483,-3.063 -6.01,-3.063 -5.971,0 -8.879,5.129 -8.879,10.602 0,5.32 2.946,10.258 8.764,10.258 2.336,0 4.633,-0.994 5.855,-2.948 H 4.479 V 11.1 H 9.914 V -16.229 H 4.75 Z"
                            style="fill:#040606;fill-opacity:1;fill-rule:nonzero;stroke:none"
                            id="path110"/>
                </g>
                <g
                        id="g112"
                        transform="translate(562.31551,68.26443)">
                    <path
                            d="m 0,0 c -0.674,-3.551 -2.494,-6.393 -6.785,-6.393 -5.459,0 -7.012,4.663 -7.012,9.387 0,4.963 1.553,9.625 7.012,9.625 3.711,0 5.523,-2.098 6.435,-5.064 h 5.504 c -0.722,6.263 -5.48,9.757 -11.441,9.757 -8.393,0 -13.072,-6.263 -13.072,-14.312 0,-7.822 4.679,-14.086 13.072,-14.086 6.644,0 11.06,4.326 11.668,11.086 z"
                            style="fill:#040606;fill-opacity:1;fill-rule:nonzero;stroke:none"
                            id="path114"/>
                </g>
            </g>
        </g>
    </g>
</svg>
