<?xml version="1.0" encoding="UTF-8" standalone="no"?>
<!-- Generator: Adobe Illustrator 24.0.1, SVG Export Plug-In . SVG Version: 6.00 Build 0)  -->

<svg
        version="1.1"
        id="Layer_1"
        x="0px"
        y="0px"
        viewBox="0 0 127 39.6"
        xml:space="preserve"
        sodipodi:docname="cf_hardware_software_logo_white_lettering.svg"
        width="127"
        height="39.599998"
        inkscape:version="1.2.2 (732a01da63, 2022-12-09)"
        xmlns:inkscape="http://www.inkscape.org/namespaces/inkscape"
        xmlns:sodipodi="http://sodipodi.sourceforge.net/DTD/sodipodi-0.dtd"
        xmlns="http://www.w3.org/2000/svg"
        xmlns:svg="http://www.w3.org/2000/svg"><defs
   id="defs19" />
    <sodipodi:namedview
            id="namedview17"
            pagecolor="#ffffff"
            bordercolor="#000000"
            borderopacity="0.25"
            inkscape:showpageshadow="2"
            inkscape:pageopacity="0.0"
            inkscape:pagecheckerboard="0"
            inkscape:deskcolor="#d1d1d1"
            showgrid="false"
            inkscape:zoom="9.8373984"
            inkscape:cx="41.931818"
            inkscape:cy="19.822314"
            inkscape:window-width="2560"
            inkscape:window-height="1369"
            inkscape:window-x="2552"
            inkscape:window-y="-8"
            inkscape:window-maximized="1"
            inkscape:current-layer="layer1"/>
    <style
            type="text/css"
            id="style2">
	.st0{fill:#FFFFFF;}
	.st1{fill:none;}
	.st2{font-family:'Arial-BoldMT';}
	.st3{font-size:12px;}
</style>


    <g
            inkscape:groupmode="layer"
            id="layer1"
            inkscape:label="Page 1"><path
     class="st0"
     d="M 16.6,18.2 C 15.5,19.3 14,20 12.3,20 8.9,20 6.2,17.3 6.2,13.9 c 0,-3.4 2.7,-6.1 6.1,-6.1 1.7,0 3.2,0.7 4.3,1.8 L 20.9,5.3 C 18.7,3.1 15.6,1.7 12.3,1.7 5.5,1.7 0,7.2 0,13.9 c 0,6.8 5.5,12.2 12.2,12.2 2.2,0 4.3,-0.6 6.1,-1.6 0.9,-0.5 1.8,-1.2 2.5,-1.9 l -2.5,-2.5 z"
     id="path4" />
        <path
                class="st1"
                d="m 12.2,20 c 3.4,0 6.1,-2.7 6.1,-6.1 0,-3.4 -2.7,-6.1 -6.1,-6.1 -3.4,0 -6.1,2.7 -6.1,6.1 0,3.4 2.8,6.1 6.1,6.1 z"
                id="path6"/>
        <text
                transform="translate(43.633,11.8537)"
                class="st0 st2 st3"
                id="text8"><tspan
       style="font-style:normal;font-variant:normal;font-weight:bold;font-stretch:normal;font-family:Arial-BoldMT, Arial;-inkscape-font-specification:'Arial-BoldMT, Arial Bold'"
       id="tspan1589">Hardware and</tspan></text>
        <text
                transform="translate(56.333,24.2537)"
                class="st0 st2 st3"
                id="text10"><tspan
       style="font-style:normal;font-variant:normal;font-weight:bold;font-stretch:normal;font-family:Arial-BoldMT, Arial;-inkscape-font-specification:'Arial-BoldMT, Arial Bold'"
       id="tspan1593"> Software</tspan></text>
        <text
                transform="translate(58.933,36.6537)"
                class="st0 st2 st3"
                id="text12"><tspan
       style="font-style:normal;font-variant:normal;font-weight:bold;font-stretch:normal;font-family:Arial-BoldMT, Arial;-inkscape-font-specification:'Arial-BoldMT, Arial Bold'"
       id="tspan1591">Platform</tspan></text>
        <path
                class="st0"
                d="m 18.4,20 v 17.3 h 6.1 v -6.1 c 0,-3.4 2.7,-6.1 6.1,-6.1 h 2.7 V 20 h -2.7 c -3.4,0 -6.1,-2.7 -6.1,-6.1 0,-3.4 2.7,-6.1 6.1,-6.1 1.7,0 3.2,0.7 4.3,1.8 L 39.2,5.3 C 37,3.1 33.9,1.7 30.6,1.7 23.8,1.7 18.4,7.2 18.4,13.9 V 20"
                id="path14"/></g></svg>
