<?xml version="1.0" encoding="UTF-8" standalone="no"?>
<svg
        id="Layer_1"
        data-name="Layer 1"
        viewBox="0 0 123 39.6"
        version="1.1"
        sodipodi:docname="CF_hardware_software_logo.svg"
        inkscape:version="1.2.2 (732a01da63, 2022-12-09)"
        xmlns:inkscape="http://www.inkscape.org/namespaces/inkscape"
        xmlns:sodipodi="http://sodipodi.sourceforge.net/DTD/sodipodi-0.dtd"
        xmlns="http://www.w3.org/2000/svg"
        xmlns:svg="http://www.w3.org/2000/svg"
        xmlns:rdf="http://www.w3.org/1999/02/22-rdf-syntax-ns#"
        xmlns:cc="http://creativecommons.org/ns#"
        xmlns:dc="http://purl.org/dc/elements/1.1/">
    <sodipodi:namedview
            id="namedview25"
            pagecolor="#ffffff"
            bordercolor="#000000"
            borderopacity="0.25"
            inkscape:showpageshadow="2"
            inkscape:pageopacity="0.0"
            inkscape:pagecheckerboard="0"
            inkscape:deskcolor="#d1d1d1"
            showgrid="false"
            inkscape:zoom="9.8373984"
            inkscape:cx="51.690496"
            inkscape:cy="19.822314"
            inkscape:window-width="2560"
            inkscape:window-height="1369"
            inkscape:window-x="2552"
            inkscape:window-y="-8"
            inkscape:window-maximized="1"
            inkscape:current-layer="layer1"/>
    <defs
            id="defs4">
        <style
                id="style2">
            .cls-1{fill:#eb1e42;}.cls-2,.cls-5{fill:#231f20;}.cls-3{fill:#00aeef;}.cls-4,.cls-5{isolation:isolate;}.cls-5{font-size:12px;font-family:Arial-BoldMT,
            Arial;font-weight:700;}
        </style>
    </defs>
    <title
            id="title6">CF_hardware_sofware_logo
    </title>
    <metadata
            id="metadata254">
        <rdf:RDF>
            <cc:Work
                    rdf:about="">
                <dc:title>CF_hardware_sofware_logo</dc:title>
            </cc:Work>
        </rdf:RDF>
    </metadata>
    <g
            inkscape:groupmode="layer"
            id="layer1"
            inkscape:label="Page 1">
        <path
                class="cls-1"
                d="M12.2,20a6.1,6.1,0,1,0-6.1-6.1A6.12,6.12,0,0,0,12.2,20Z"
                id="path8"/>
        <path
                class="cls-2"
                d="M30.6,7.8a6,6,0,0,1,4.3,1.8l4.3-4.3a12.16,12.16,0,0,0-20.8,8.6V20l2.5,2.5a11,11,0,0,1-2.5,1.9V37.3h6.1V31.2a6.06,6.06,0,0,1,6.1-6.1h2.7V20H30.6a6.1,6.1,0,0,1,0-12.2Z"
                id="path10"/>
        <path
                class="cls-3"
                d="M16.6,18.2a6.1,6.1,0,1,1,0-8.6l4.3-4.3a12.21,12.21,0,1,0-8.7,20.8,12.6,12.6,0,0,0,6.1-1.6,11.78,11.78,0,0,0,2.5-1.9l-2.5-2.5Z"
                id="path12"/>
        <g
                class="cls-4"
                id="g22">
            <text
                    class="cls-5"
                    transform="translate(43.63 11.85)"
                    id="text14">Hardware and
            </text>
            <text
                    class="cls-5"
                    transform="translate(56.33 24.25)"
                    id="text18">
                <tspan
           xml:space="preserve"
           id="tspan16"> Software</tspan>
            </text>
            <text
                    class="cls-5"
                    transform="translate(58.93 36.65)"
                    id="text20">Platform
            </text>
        </g>
    </g>
</svg>
